<svg xmlns="http://www.w3.org/2000/svg" width="1280" height="360" viewBox="0 0 1280 360" role="img" aria-labelledby="title desc">
  <title id="title">Media search reliability framework architecture</title>
  <desc id="desc">Query understanding, hybrid retrieval, feature enrichment, LambdaRank, and reliability evaluation.</desc>
  <rect width="1280" height="360" rx="28" fill="#0b1020"/>
  <text x="640" y="48" text-anchor="middle" fill="#f8fafc" font-family="Arial, sans-serif" font-size="28" font-weight="700">Multimodal Media Search Reliability Framework</text>
  <text x="640" y="78" text-anchor="middle" fill="#a5b4fc" font-family="Arial, sans-serif" font-size="16">Search relevance under frozen data, split, slice, latency, and claim contracts</text>
  <g font-family="Arial, sans-serif" font-size="16" text-anchor="middle">
    <rect x="45" y="125" width="170" height="78" rx="16" fill="#172554" stroke="#60a5fa" stroke-width="2"/>
    <text x="130" y="157" fill="#fff" font-weight="700">Query</text><text x="130" y="181" fill="#bfdbfe">semantics + intent</text>
    <rect x="260" y="125" width="185" height="78" rx="16" fill="#172554" stroke="#60a5fa" stroke-width="2"/>
    <text x="352" y="157" fill="#fff" font-weight="700">Hybrid Retrieval</text><text x="352" y="181" fill="#bfdbfe">sparse + dense</text>
    <rect x="490" y="125" width="190" height="78" rx="16" fill="#3b1d5a" stroke="#c084fc" stroke-width="2"/>
    <text x="585" y="157" fill="#fff" font-weight="700">Feature Enrichment</text><text x="585" y="181" fill="#e9d5ff">tags + IMDb + context</text>
    <rect x="725" y="125" width="165" height="78" rx="16" fill="#4a2208" stroke="#fb923c" stroke-width="2"/>
    <text x="807" y="157" fill="#fff" font-weight="700">LambdaRank</text><text x="807" y="181" fill="#fed7aa">candidate reranking</text>
    <rect x="935" y="110" width="300" height="108" rx="16" fill="#12372a" stroke="#34d399" stroke-width="2"/>
    <text x="1085" y="143" fill="#fff" font-weight="700">Reliability Evaluation</text>
    <text x="1085" y="169" fill="#a7f3d0">slices · calibration · latency</text>
    <text x="1085" y="193" fill="#a7f3d0">promotion · launch gate · claims</text>
  </g>
  <g stroke="#94a3b8" stroke-width="3">
    <line x1="215" y1="164" x2="252" y2="164"/><line x1="445" y1="164" x2="482" y2="164"/>
    <line x1="680" y1="164" x2="717" y2="164"/><line x1="890" y1="164" x2="927" y2="164"/>
  </g>
  <rect x="210" y="265" width="860" height="58" rx="14" fill="#111827" stroke="#475569"/>
  <text x="640" y="289" text-anchor="middle" fill="#f8fafc" font-family="Arial, sans-serif" font-size="16" font-weight="700">Frozen comparison contract</text>
  <text x="640" y="311" text-anchor="middle" fill="#cbd5e1" font-family="Arial, sans-serif" font-size="14">manifest · query-group split · promotion eligibility · legacy replay disclosure</text>
</svg>
